PathFileType	4	(X/Y/Z)	E:\3-PhD\Data\MocapData\ElaboratedData\009\pre\dynamicElaborations\RunA3\RunA3.trc
DataRate	CameraRate	NumFrames	NumMarkers	Units	OrigDataRate	DataStartFrame
200	200	5	54	mm	200	570
Frame#	Time	FHD			LBHD			RBHD			C7			T10			CLAV			LSHO			LUUPA			LMUPA			LDUPA			LLEP			LMEP			LRAD			LUL			LRFIN			RSHO			RUPA1			RMUPA			RDUPA			RLEP			RMEP			RRAD			RUL			RUFIN			RASI			USACR			LSACR			RSACR			LTHI1			LTHI2			LTHI3			LTHI4			LTIB1			LTIB2			LTIB3			LTIB4			LLMAL			LHEE			LMT1			LMT2			RTHI			RTHI2			RTHI3			RTHI4			RLFC			RTIB1			RTIB2			RTIB3			RTIB4			RLMAL			RHEE			RMT1			RMT2			RMT5		
		X1	Y1	Z1	X2	Y2	Z2	X3	Y3	Z3	X4	Y4	Z4	X5	Y5	Z5	X6	Y6	Z6	X7	Y7	Z7	X8	Y8	Z8	X9	Y9	Z9	X10	Y10	Z10	X11	Y11	Z11	X12	Y12	Z12	X13	Y13	Z13	X14	Y14	Z14	X15	Y15	Z15	X16	Y16	Z16	X17	Y17	Z17	X18	Y18	Z18	X19	Y19	Z19	X20	Y20	Z20	X21	Y21	Z21	X22	Y22	Z22	X23	Y23	Z23	X24	Y24	Z24	X25	Y25	Z25	X26	Y26	Z26	X27	Y27	Z27	X28	Y28	Z28	X29	Y29	Z29	X30	Y30	Z30	X31	Y31	Z31	X32	Y32	Z32	X33	Y33	Z33	X34	Y34	Z34	X35	Y35	Z35	X36	Y36	Z36	X37	Y37	Z37	X38	Y38	Z38	X39	Y39	Z39	X40	Y40	Z40	X41	Y41	Z41	X42	Y42	Z42	X43	Y43	Z43	X44	Y44	Z44	X45	Y45	Z45	X46	Y46	Z46	X47	Y47	Z47	X48	Y48	Z48	X49	Y49	Z49	X50	Y50	Z50	X51	Y51	Z51	X52	Y52	Z52	X53	Y53	Z53	X54	Y54	Z54	

602	3.005000	-159.308695	1392.848300	825.771662	-258.556740	1401.517350	657.371400	-296.161063	1384.341290	777.797545	-345.122010	1284.914313	701.311758	-579.170493	1020.461644	693.196597	-278.718331	1135.292420	727.009588	-243.501724	1215.890857	604.932655	-184.152917	1075.805268	501.360735	-143.688734	1068.528602	526.344185	-142.297266	1021.081055	489.175518	-72.942683	920.953180	483.276196	-95.722509	874.926954	538.124659	15.078477	1068.596733	671.964965	81.913364	1040.612705	652.684846	39.142492	1134.032416	658.264852	-318.872820	1211.753272	885.271641	-489.875765	1183.159898	950.934608	-507.805496	1138.129867	944.801105	-556.213493	1171.548553	960.552982	-690.127619	1135.704031	962.285207	-704.835739	1157.334936	897.321179	-754.031479	890.456166	891.675801	-815.055235	911.069008	921.654432	-760.708784	824.766300	934.462373	-462.958270	788.108965	756.714989	-625.394109	919.617637	675.478177	-629.784102	898.905925	639.301561	-634.553570	880.203205	695.052659	-481.234937	679.543234	369.668062	-442.182907	611.577162	338.774889	-397.384147	608.462571	356.071123	-466.049201	559.117993	318.714400	-494.238063	287.368550	226.340458	-556.984033	314.593016	171.101482	-533.807115	280.649858	184.837985	-588.532015	214.387786	178.692069	-717.560632	156.144169	102.864921	-814.210960	143.283334	113.720415	-621.793960	45.832313	154.303841	-611.554024	55.855251	107.920871	-413.787410	613.227164	830.711222	-352.395608	614.329232	852.257091	-334.472837	644.334088	855.511104	-292.626594	554.261231	833.931431	-194.920041	510.183793	822.983443	-71.221193	360.015345	718.659364	-123.720012	275.511647	674.457926	-77.568734	284.258786	681.749673	-42.985907	265.517759	641.153794	-78.340490	170.385832	591.024495	-92.118654	148.876260	494.870599	90.623476	186.007631	624.911999	69.216429	164.962473	651.109473	20.782098	113.083888	655.330632	
603	3.010000	-138.206542	1398.668884	840.366359	-236.698347	1406.240076	671.570521	-274.716165	1389.817880	791.878476	-323.108707	1289.093461	714.819914	-554.855312	1023.126188	701.767790	-256.095603	1140.028128	741.824622	-220.186515	1220.552604	619.329964	-161.830389	1080.907070	513.856240	-121.175495	1073.292422	538.526432	-120.226327	1026.141536	501.034335	-51.461008	925.974526	493.547176	-74.478712	879.375955	548.527237	36.272555	1072.066067	683.727025	103.172443	1044.331797	664.342432	59.868120	1137.485998	669.987132	-299.439944	1216.851596	899.309474	-471.638992	1190.489940	960.955648	-489.651114	1145.549046	955.116673	-538.280057	1179.530980	968.589905	-672.953020	1144.021740	967.446753	-685.097069	1164.331909	901.313746	-729.662505	896.638520	896.445853	-792.052130	916.547742	923.908016	-736.906056	831.392078	939.665804	-439.883821	791.015596	765.624775	-600.496752	923.041349	682.824878	-604.311646	902.460040	646.479393	-610.191968	883.497064	701.992348	-460.178456	682.997484	378.363232	-424.302712	613.324698	347.543669	-380.058629	608.120732	365.391924	-450.382029	562.324776	326.716963	-487.304057	290.757323	232.243209	-548.939282	318.987553	176.209957	-526.320524	284.698685	190.080446	-581.471484	218.960492	182.665720	-710.434464	162.510546	104.835052	-806.766232	153.407428	115.496304	-620.896672	44.940972	154.348722	-610.322311	56.015578	108.399185	-391.523574	614.579421	838.575030	-330.116308	615.157442	860.083173	-311.934034	645.025871	863.292170	-270.808547	554.631296	841.484448	-172.835896	509.789151	830.617146	-42.595368	360.449329	731.337868	-90.969827	273.667371	687.636830	-45.581957	283.964508	696.009488	-9.451834	265.598663	656.551355	-40.438489	168.561936	607.298070	-51.971760	145.453565	511.316876	127.641973	188.854675	643.835818	106.335080	167.550183	669.926924	59.212656	114.459298	673.959322	
604	3.015000	-117.117605	1404.487428	855.209701	-215.093728	1411.092542	686.166586	-253.357587	1395.299907	806.405996	-301.203164	1293.363620	728.625130	-530.444391	1025.796206	710.406814	-233.525340	1144.879390	756.766927	-196.862447	1225.278406	633.935758	-139.733034	1086.085990	526.254685	-98.916246	1077.942409	550.538175	-98.580838	1031.189043	512.631799	-30.786146	930.778654	503.253217	-54.171135	883.618839	558.422282	57.347216	1074.813783	694.931058	124.178633	1047.068294	675.408612	80.747500	1140.143775	681.171812	-280.039183	1221.780161	913.482049	-453.292126	1197.518530	971.075593	-471.416448	1152.709593	965.449922	-520.189762	1187.217490	976.646714	-655.573787	1152.010896	972.637821	-665.052273	1170.917911	905.316221	-704.918117	902.475808	901.590652	-768.614422	921.652162	926.431704	-712.767696	837.707550	945.265387	-416.685239	793.932235	774.789112	-575.452673	926.505394	690.257911	-578.646989	906.051847	653.743795	-585.665772	886.851091	708.983749	-438.435332	686.711614	387.479353	-405.814047	615.364006	356.945033	-362.312967	608.082916	375.510171	-434.026431	566.005671	335.217644	-479.805610	294.837470	238.739321	-540.254029	323.957044	181.782103	-518.160831	289.365029	195.840620	-573.585603	224.059180	187.084097	-702.210531	169.116395	107.059865	-798.047406	163.977529	117.672131	-619.903735	44.123057	154.433831	-608.817070	56.244327	108.976813	-369.144577	615.545065	846.396210	-307.767761	615.491761	867.954892	-289.317660	645.214171	871.245212	-248.898645	554.576227	848.992907	-150.667382	509.030774	838.327290	-14.587490	360.716151	744.021174	-59.193531	271.950774	701.080234	-14.500655	283.605523	710.263868	23.030001	265.627615	671.908312	-3.919134	166.901821	623.654234	-13.420725	142.337735	527.929465	163.277539	191.345837	662.460290	142.080064	169.837327	688.506167	96.142503	115.703323	692.446175	
605	3.020000	-96.037289	1410.227068	870.262684	-193.754448	1416.022173	701.122476	-232.076572	1400.705965	821.341457	-279.389783	1297.670545	742.671841	-505.939285	1028.449474	719.128727	-211.006854	1149.778821	771.762150	-173.536985	1229.993618	648.732694	-117.793113	1091.308218	538.589038	-76.866358	1082.433176	562.435083	-77.292734	1036.202638	524.001739	-10.856863	935.359615	512.421849	-34.745615	887.647429	567.826799	78.360218	1076.797175	705.603117	144.984544	1048.779492	685.906873	101.845930	1141.964572	691.869989	-260.676436	1226.478838	927.734427	-434.844912	1204.163908	981.291789	-453.105117	1159.521764	975.787490	-501.945999	1194.521827	984.751900	-637.947386	1159.567860	977.877637	-644.732493	1177.046683	909.421303	-679.838022	907.924397	907.105762	-744.757676	926.317271	929.279153	-688.294089	843.639460	951.216018	-393.374839	796.810006	784.204479	-550.282683	929.976723	697.805403	-552.830053	909.657661	661.119317	-560.977136	890.236056	716.055605	-416.053695	690.615352	396.983373	-386.753254	617.620054	366.900799	-344.160706	608.327693	386.299348	-417.000470	570.071307	344.199601	-471.619014	299.561707	245.814778	-530.843037	329.455079	187.844674	-509.228013	294.603314	202.123929	-564.784555	229.633309	191.989768	-692.833777	175.911996	109.628654	-787.995821	174.920799	120.408814	-618.725254	43.510235	154.647746	-606.951504	56.598857	109.710145	-346.624134	616.103962	854.147489	-285.323991	615.329095	875.841365	-266.610141	644.895111	879.352020	-226.850487	554.120824	856.416799	-128.398247	507.963489	846.093736	12.790835	360.804449	756.652195	-28.476410	270.333586	714.699513	15.636862	283.143029	724.424290	54.418879	265.544565	687.131010	31.114034	165.330429	639.984905	23.447058	139.429387	544.556712	197.488603	193.343147	680.705841	176.383925	171.697663	706.766328	131.475529	116.697628	710.685850	
606	3.025000	-74.964664	1415.821652	885.486402	-172.678019	1420.973920	716.390547	-210.863160	1405.962832	836.632183	-257.647401	1301.959022	756.898784	-481.337414	1031.065617	727.961492	-188.536222	1154.661065	786.743961	-150.220916	1234.626505	663.690788	-95.966572	1096.530911	550.878481	-55.002547	1086.723324	574.259221	-56.314543	1041.158142	535.173735	8.388172	939.724115	521.088964	-16.124731	891.462596	576.741244	99.363070	1077.978895	715.774761	165.636266	1049.439808	695.856082	123.211705	1142.911662	702.138650	-241.356991	1230.903786	942.012476	-416.312006	1210.349646	991.598232	-434.719259	1165.898305	986.111787	-483.557751	1201.354780	992.935417	-620.036812	1166.586580	983.184205	-624.178726	1182.675458	913.717050	-654.459035	912.943680	912.984800	-720.500392	930.479966	932.504022	-663.476632	849.115766	957.477333	-369.972643	799.601796	793.863294	-525.009189	933.424646	705.498951	-526.902748	913.256383	668.633108	-536.141694	893.624135	723.237827	-393.097737	694.641613	406.834088	-367.157490	620.023737	377.310025	-325.607213	608.837764	397.616320	-399.321917	574.429562	353.633663	-462.607202	304.850394	253.432228	-520.617886	335.411236	194.418188	-499.421660	300.341683	208.926744	-554.993167	235.616604	197.417533	-682.285578	182.861793	112.634158	-776.593863	186.170043	123.860909	-617.228655	43.274885	155.113912	-604.622020	57.165485	110.686313	-323.942390	616.256075	861.812712	-262.759989	614.690469	883.712958	-243.796772	644.083959	887.584856	-204.629498	553.298420	863.728172	-106.027993	506.640556	853.901056	39.523103	360.692792	769.159968	1.112603	268.771190	728.371363	44.793691	282.537361	738.395096	84.677996	265.285671	702.117188	64.575703	163.772309	656.161198	58.562754	136.636941	561.036075	230.237735	194.727263	698.488568	209.184610	173.019888	724.614992	165.125351	117.335811	728.563809	
